The.Constant.Gardener.2005.720p.BRRip.x264.aac.mp4-anoXmous

Format                           : MPEG-4
File size                        : 700 MiB
Duration                         : 2h 8mn
Overall bit rate mode            : Variable
Overall bit rate                 : 762 Kbps


Video
ID                               : 1
Format                           : AVC
Format/Info                      : Advanced Video Codec
Format profile                   : High@L4.1
Format settings, CABAC           : Yes
Format settings, ReFrames        : 4 frames
Codec ID                         : avc1
Codec ID/Info                    : Advanced Video Coding
Duration                         : 2h 8mn
Bit rate                         : 694 Kbps
Maximum bit rate                 : 5 585 Kbps
Width                            : 1 280 pixels
Height                           : 720 pixels
Display aspect ratio             : 16:9
Frame rate mode                  : Constant
Frame rate                       : 23.976 fps
Color space                      : YUV
Chroma subsampling               : 4:2:0
Bit depth                        : 8 bits
Scan type                        : Progressive
Bits/(Pixel*Frame)               : 0.031
Stream size                      : 637 MiB (91%)
Writing library                  : x264 core 119 r2106 07efeb4


Audio
ID                               : 2
Format                           : AAC
Format/Info                      : Advanced Audio Codec
Format profile                   : LC
Codec ID                         : 40
Duration                         : 2h 8mn
Bit rate mode                    : Variable
Bit rate                         : 66.2 Kbps
Maximum bit rate                 : 83.6 Kbps
Channel(s)                       : 2 channels
Channel positions                : Front: L R
Sampling rate                    : 48.0 KHz 
Compression mode                 : Lossy
Stream size                      : 60.4 MiB (9%)
Language                         : English

                             SUB:

The.Constant.Gardener.2005.720p.BRRip.x264.aac.mp4-anoXmous.eng.srt
The.Constant.Gardener.2005.720p.BRRip.x264.aac.mp4-anoXmous.swe.srt
 
http://www.imdb.com/title/tt0387131/

This 1 should work very fine with PSP and XBOX 
